<?xml version="1.0" encoding="UTF-8"?>
<svg width="48px" height="52px" viewBox="0 0 48 52" version="1.1" xmlns="http://www.w3.org/2000/svg" xmlns:xlink="http://www.w3.org/1999/xlink">
    <!-- Generator: Sketch 60 (88103) - https://sketch.com -->
    <title>ic / clap</title>
    <desc>Created with Sketch.</desc>
    <g id="📚-Design" stroke="none" stroke-width="1" fill="none" fill-rule="evenodd">
        <g id="Become-an-Affiliate" transform="translate(-773.000000, -587.000000)" fill="#1FA5A3">
            <g id="Group-9" transform="translate(73.000000, 586.000000)">
                <g id="Group-7" transform="translate(568.000000, 1.000000)">
                    <g id="ic-/-clap" transform="translate(131.000000, 0.753719)">
                        <path d="M26.4984136,13.1295119 L26.7368339,13.1316596 C27.8619583,13.1316596 28.9987059,13.6547029 29.8425492,14.5613115 C29.9355347,14.6171028 30.0192217,14.7240361 30.0982593,14.8356187 C30.8863114,14.173097 31.9184503,13.8220768 32.9040965,13.8871667 L32.9040965,13.8871667 C34.0292209,13.8871667 35.1636439,14.41021 36.0098118,15.3191432 C36.2771451,15.62832 36.4979856,15.9886387 36.6886059,16.4140473 C38.3716432,15.3702852 40.5544776,15.6166968 41.993428,17.0556472 C42.8117003,17.8715949 43.2440829,18.9293048 43.2440829,20.1125452 C43.2440829,20.6309393 43.1557466,21.1423595 42.9883728,21.6165854 C43.5834799,21.8281274 44.1413928,22.1721737 44.5551783,22.5836345 C45.9941287,24.0249096 46.2010214,26.2891063 45.0921695,28.0023639 C45.5292013,28.1906595 45.9429867,28.4417203 46.2823837,28.7346246 C47.1169285,29.5645201 47.5469864,30.6222301 47.5469864,31.8031458 C47.5469864,32.9538412 47.0913575,34.0696671 46.2986562,34.8623684 L46.2986562,34.8623684 L35.0706584,46.1438328 C31.997488,49.2751192 27.8340627,51 23.3475128,51 C21.6877219,51 19.9302961,50.7210435 18.2658559,50.1910262 C17.9101864,50.2444929 17.5266212,50.2444929 17.1825749,50.2444929 C12.754141,50.2444929 8.59071571,48.5219367 5.45942937,45.3906504 C2.40718069,42.3384017 1.2402128,37.8797475 2.40718069,33.7418932 L2.40718069,33.7418932 L2.41880388,33.6489077 C2.93487334,31.6892386 3.22080372,29.4250419 3.22080372,27.2677785 L3.22080372,27.2677785 L3.16268779,18.8339947 C3.16268779,17.069595 4.47378318,15.595775 6.21493647,15.4028301 C7.8282347,15.2238331 9.46477931,15.8142909 10.6224487,16.9696356 C11.1385181,16.5349285 11.7568716,16.2699198 12.3868483,16.2141285 C14.8695609,15.9653924 17.2290676,17.4531602 18.072911,19.8010438 L18.072911,19.8010438 L23.5520809,14.3776651 C24.4145213,13.5152247 25.5396457,13.0898161 26.7368339,13.1316596 Z M32.7715922,16.9115197 C32.2671459,16.8696762 32.0649024,16.9835835 31.7557257,17.2927602 L31.7557257,17.2927602 L20.2394729,28.8113377 C19.4839658,29.494781 18.4820471,29.7179462 17.5568415,29.4041202 C16.6479083,29.0786709 15.9807375,28.232503 15.8459085,27.2468568 L15.8459085,27.2468568 L15.439097,21.3539014 C15.2810217,20.0404814 14.0908074,19.0827309 12.7378685,19.2361569 C12.5309758,19.2384816 12.3543034,19.4453743 12.3543034,19.6476177 L12.3543034,19.6476177 L12.3543034,28.0814016 C12.3543034,30.6152562 12.0497759,32.9863861 11.4244485,35.3342697 L11.4244485,35.3342697 L11.4128253,35.4295799 C10.5713066,38.5143735 11.4569934,41.8409293 13.7235147,44.105126 C19.0306615,49.4145974 27.6666888,49.4145974 32.9738356,44.105126 L32.9738356,44.105126 L44.2204305,32.8027398 C44.4947377,32.5726007 44.6388652,32.2494761 44.6388652,31.8635863 C44.6388652,31.4916444 44.5040362,31.1499227 44.2599493,30.9035112 C43.729932,30.3734939 42.8721409,30.3758185 42.3444483,30.9058358 L42.3444483,30.9058358 L35.1892149,38.0610692 C34.6127048,38.6399039 33.6061369,38.6375792 33.0319515,38.0587446 C32.7506704,37.7797881 32.5972444,37.4055215 32.5972444,37.0103332 C32.5972444,36.6151448 32.7506704,36.2408782 33.0319515,35.9595971 L33.0319515,35.9595971 L38.6157301,30.3758185 L40.2499501,28.8020391 L42.4560308,26.5959584 C42.7117409,26.3425729 42.8512192,26.0008513 42.8512192,25.6382079 C42.8512192,25.2755644 42.7117409,24.9338428 42.4560308,24.682782 C41.9469353,24.1690371 41.0496253,24.1690371 40.5405298,24.682782 L40.5405298,24.682782 L31.1745664,34.0464207 C30.600381,34.6229307 29.5938131,34.6252554 29.017303,34.0440961 C28.4384684,33.467586 28.4384684,32.526108 29.017303,31.9472733 L29.017303,31.9472733 L39.9547212,21.0679711 C40.2011327,20.8238842 40.3359617,20.4844871 40.3359617,20.1125452 C40.3359617,19.7406032 40.2011327,19.3988815 39.9547212,19.1547946 C39.4456256,18.6410498 38.5483157,18.6410498 38.0392201,19.1547946 L38.0392201,19.1547946 L27.1622425,30.0340968 C26.8949092,30.3014301 26.4811238,30.4664794 26.0836108,30.4664794 C25.6558776,30.4664794 25.2909096,30.3200272 25.0049792,30.0317722 C24.7236981,29.7528157 24.570272,29.3785492 24.570272,28.9833608 C24.570272,28.5881725 24.7236981,28.2139059 25.0049792,27.9326248 L25.0049792,27.9326248 L33.5549949,19.3268178 C34.0757136,18.806099 34.1547513,17.8251021 33.7200441,17.3415776 C33.5666181,17.1858269 33.2248964,16.9115197 32.7715922,16.9115197 Z M6.79377114,18.4643774 C6.70078565,18.4643774 6.60780016,18.4690266 6.51249003,18.4806498 C6.30559732,18.4829745 6.12892489,18.6898672 6.12892489,18.8921106 L6.12892489,18.8921106 L6.18936546,27.3235698 C6.18936546,29.8899693 5.87089016,32.3424616 5.24788738,34.6159568 C4.39707016,37.7286461 5.28275694,41.0761237 7.55857678,43.3472942 L7.55857678,43.3472942 C8.66742874,44.4607955 9.97852414,45.3627547 11.4686166,46.0438734 C8.53492442,42.9985987 7.42607246,38.6213068 8.57444325,34.5555163 L8.57444325,34.5555163 L8.57444325,34.474154 L8.65813019,34.3718699 C9.1393301,32.2610993 9.38806628,30.1108099 9.38806628,28.0814016 L9.38806628,28.0814016 L9.32995035,21.9769042 L9.21371849,20.6030436 C9.06726635,19.3779598 8.00955641,18.4643774 6.79377114,18.4643774 Z M26.6647702,16.0978967 C26.3741905,16.0978967 25.9627297,16.1653112 25.6489037,16.4814618 L25.6489037,16.4814618 L25.646579,16.4814618 L18.5308645,23.5390604 L18.7586789,26.3170019 L27.8201149,17.0347255 C27.7968685,16.858053 27.7178308,16.6697574 27.594625,16.5047082 C27.4597961,16.3745285 27.1180744,16.0978967 26.6647702,16.0978967 Z M46.9007372,7.51626588 C47.2424589,7.34424273 47.6632182,7.32797027 48.049108,7.47209778 C48.4280239,7.61854992 48.7232528,7.90215566 48.8650557,8.25550052 C49.0370788,8.53445699 49.0882208,8.90872358 48.9836122,9.27136699 C48.8697049,9.66190605 48.5837746,9.99897844 48.2025341,10.1919233 L48.2025341,10.1919233 L48.1932355,10.1965726 L41.8539498,13.1604851 C41.6400832,13.2371981 41.4285412,13.3069372 41.2077006,13.3069372 C40.6125935,13.3069372 40.1151212,12.9931112 39.8431386,12.4468214 C39.6664662,12.0958012 39.6501937,11.6773665 39.7966459,11.2938014 C39.9384487,10.9172101 40.2220545,10.6196566 40.5753993,10.4755291 L40.5753993,10.4755291 Z M39.6071879,1.78022353 C39.9814545,1.02704106 40.8648167,0.708565765 41.5691817,1.06191062 C41.920202,1.23858305 42.1898599,1.53381198 42.3293381,1.89413075 C42.4734656,2.27072198 42.4571932,2.67288422 42.2828454,3.02390444 L42.2828454,3.02390444 L39.3770488,9.41433218 C39.100417,9.96759584 38.6029446,10.2814219 38.0078375,10.2814219 C37.7939709,10.2814219 37.6033506,10.2209813 37.3918086,10.1489175 C36.6572233,9.78627414 36.3317741,8.88896417 36.6316523,8.13810634 L36.6316523,8.13810634 L36.6386262,8.12183388 Z M31.4756069,0.0544128491 C31.8684706,-0.0501958261 32.2706328,-0.00370308159 32.6100299,0.191566445 C32.942453,0.379862061 33.1818906,0.693688087 33.2841747,1.07027932 L33.2841747,1.07027932 L35.0880931,7.82102582 C35.1927018,8.20459097 35.1345859,8.60442857 34.9253685,8.95079952 C34.7208005,9.28322264 34.3953513,9.52498491 34.0117861,9.62959359 L34.0117861,9.62959359 L33.9350731,9.64121677 C33.9095021,9.64121677 33.8630093,9.65283996 33.8258151,9.66446315 C33.7700238,9.68073561 33.7095833,9.6993327 33.6444934,9.6993327 C32.9982443,9.6993327 32.4194096,9.26927482 32.205543,8.62999958 L32.205543,8.62999958 L30.3992999,1.86298061 C30.2970158,1.49568793 30.3481578,1.10747351 30.5411027,0.770401115 C30.7410215,0.421705531 31.0804186,0.159021524 31.4756069,0.0544128491 Z" id="Combined-Shape"></path>
                    </g>
                </g>
            </g>
        </g>
    </g>
</svg>