<?xml version="1.0" encoding="UTF-8"?>
<svg width="46px" height="45px" viewBox="0 0 46 45" version="1.1" xmlns="http://www.w3.org/2000/svg" xmlns:xlink="http://www.w3.org/1999/xlink">
    <!-- Generator: Sketch 60 (88103) - https://sketch.com -->
    <title>Shape</title>
    <desc>Created with Sketch.</desc>
    <g id="📚-Design" stroke="none" stroke-width="1" fill="none" fill-rule="evenodd">
        <g id="Become-an-Affiliate" transform="translate(-486.000000, -590.000000)" fill="#1FA5A3" stroke="#1FA5A3" stroke-width="0.5">
            <g id="Group-9" transform="translate(73.000000, 586.000000)">
                <g id="Group-8" transform="translate(285.000000, 3.000000)">
                    <g id="Group-2">
                        <g id="Group" transform="translate(129.000000, 0.500000)">
                            <path d="M43.9987728,27.0112628 L43.9987728,18.6303105 C43.9987728,18.1182154 43.6281248,17.6813416 43.1229633,17.5973581 L37.7130585,16.6953581 L37.7130585,3.96364379 C37.7130585,2.22789172 36.3059535,0.820786645 34.5702014,0.820786645 C32.8344493,0.820786645 31.4273443,2.22789172 31.4273443,3.96364379 L31.4273443,5.44288188 L13.3464871,15.4874533 L7.33210616,15.4874533 C3.45399001,15.5018252 0.257529189,18.5332116 0.0377361664,22.405121 C-0.182056856,26.2770304 2.65081544,29.6506782 6.50239187,30.1038343 L9.45877283,41.9325009 C9.57553949,42.3986192 9.99444204,42.7255359 10.4749633,42.7255486 L16.7606776,42.7255486 C17.0833597,42.7255401 17.3880336,42.5768285 17.5865518,42.3224385 C17.7850701,42.0680486 17.8552798,41.7363682 17.7768681,41.4233581 L15.21963,31.1944057 L31.4273443,40.1986914 L31.4273443,41.6779295 C31.4273443,43.4136816 32.8344493,44.8207866 34.5702014,44.8207866 C36.3059535,44.8207866 37.7130585,43.4136816 37.7130585,41.6779295 L37.7130585,28.9462152 L43.1229633,28.0442152 C43.6281248,27.9602317 43.9987728,27.5233579 43.9987728,27.0112628 Z M2.09401092,22.8207866 C2.09747447,19.9293024 4.44062191,17.586155 7.33210616,17.5826914 L12.5702014,17.5826914 L12.5702014,28.0588819 L7.33210616,28.0588819 C4.44062191,28.0554183 2.09747447,25.7122709 2.09401092,22.8207866 Z M11.2931538,40.6303105 L8.67410616,30.15412 L12.79963,30.15412 L15.4186776,40.6303105 L11.2931538,40.6303105 Z M14.6654395,28.4905009 L14.6654395,17.1510724 L31.4273443,7.83983426 L31.4273443,37.801739 L14.6654395,28.4905009 Z M35.6178204,41.6779295 C35.6178204,42.2565135 35.1487854,42.7255486 34.5702014,42.7255486 C33.9916174,42.7255486 33.5225824,42.2565135 33.5225824,41.6779295 L33.5225824,3.96364379 C33.5225824,3.38505976 33.9916174,2.91602474 34.5702014,2.91602474 C35.1487854,2.91602474 35.6178204,3.38505976 35.6178204,3.96364379 L35.6178204,41.6779295 Z M41.9035347,26.1239295 L37.7130585,26.8216438 L37.7130585,18.8199295 L41.9035347,19.5176438 L41.9035347,26.1239295 Z" id="Shape"></path>
                        </g>
                    </g>
                </g>
            </g>
        </g>
    </g>
</svg>